<?xml version="1.0" standalone="no"?>
<!DOCTYPE svg PUBLIC "-//W3C//DTD SVG 20010904//EN"
 "http://www.w3.org/TR/2001/REC-SVG-20010904/DTD/svg10.dtd">
<svg version="1.0" xmlns="http://www.w3.org/2000/svg"
 width="141.000000pt" height="162.000000pt" viewBox="0 0 141.000000 162.000000"
 preserveAspectRatio="xMidYMid meet">

<g transform="translate(0.000000,162.000000) scale(0.100000,-0.100000)"
fill="#000000" stroke="none">
<path d="M593 1600 c-213 -39 -395 -199 -465 -410 -21 -62 -22 -86 -26 -473
l-3 -407 601 0 601 0 -3 408 c-4 386 -5 410 -26 472 -62 185 -213 335 -391
391 -75 23 -214 32 -288 19z m147 -300 c25 -13 40 -62 40 -131 l0 -59 85 0
c78 0 88 -2 110 -25 32 -31 32 -69 0 -100 -22 -23 -32 -25 -110 -25 l-85 0 0
-185 c0 -207 -9 -249 -54 -261 -44 -11 -76 4 -92 41 -10 26 -14 81 -14 220 l0
185 -85 0 c-78 0 -88 2 -110 25 -32 31 -32 69 0 100 22 23 32 25 110 25 l85 0
0 59 c0 66 13 110 37 129 20 14 57 16 83 2z"/>
<path d="M51 196 c-67 -37 -65 -143 4 -174 37 -17 1253 -17 1290 0 29 13 55
55 55 88 0 33 -26 75 -55 88 -40 18 -1261 16 -1294 -2z"/>
</g>
</svg>
