<?xml version="1.0" standalone="no"?>
<!DOCTYPE svg PUBLIC "-//W3C//DTD SVG 20010904//EN"
 "http://www.w3.org/TR/2001/REC-SVG-20010904/DTD/svg10.dtd">
<svg version="1.0" xmlns="http://www.w3.org/2000/svg"
 width="140.000000pt" height="161.000000pt" viewBox="0 0 140.000000 161.000000"
 preserveAspectRatio="xMidYMid meet">

<g transform="translate(0.000000,161.000000) scale(0.100000,-0.100000)"
fill="#000000" stroke="none">
<path d="M440 1534 c-202 -54 -249 -69 -268 -90 -32 -37 -28 -59 26 -116 30
-32 51 -65 57 -91 13 -52 41 -69 171 -104 89 -23 117 -26 274 -26 157 0 185 3
274 26 130 35 158 52 171 104 6 26 27 59 58 91 53 57 57 79 25 116 -19 21 -66
36 -274 90 -138 37 -255 66 -260 65 -5 0 -119 -30 -254 -65z m321 -105 c32
-12 60 -27 63 -35 3 -7 -1 -37 -9 -66 -10 -41 -23 -62 -55 -90 -24 -21 -50
-38 -60 -38 -10 0 -36 17 -60 38 -32 28 -45 49 -55 90 -8 29 -12 59 -9 66 5
12 90 51 118 55 5 0 35 -8 67 -20z"/>
<path d="M306 1053 c-17 -43 4 -163 41 -236 76 -152 253 -239 420 -208 194 36
333 201 333 396 0 62 -4 65 -72 44 -96 -30 -222 -49 -328 -49 -106 0 -232 19
-328 49 -52 16 -62 16 -66 4z"/>
<path d="M332 489 c-74 -14 -150 -56 -208 -113 -63 -64 -101 -138 -116 -230
-13 -76 -1 -117 38 -135 35 -16 1273 -16 1308 0 35 16 49 58 41 121 -27 196
-170 338 -366 363 l-55 7 -129 -96 c-71 -53 -136 -96 -145 -96 -9 0 -73 43
-144 95 -134 100 -138 101 -224 84z m797 -197 c10 -22 21 -32 37 -32 57 0 69
-23 29 -60 -21 -20 -24 -30 -19 -58 9 -45 -10 -57 -48 -31 -28 20 -28 20 -56
0 -38 -26 -57 -14 -48 31 5 28 2 38 -19 58 -40 37 -29 60 30 60 16 0 26 8 31
23 17 55 41 59 63 9z"/>
</g>
</svg>
