<?xml version="1.0" standalone="no"?>
<!DOCTYPE svg PUBLIC "-//W3C//DTD SVG 20010904//EN"
 "http://www.w3.org/TR/2001/REC-SVG-20010904/DTD/svg10.dtd">
<svg version="1.0" xmlns="http://www.w3.org/2000/svg"
 width="202.000000pt" height="162.000000pt" viewBox="0 0 202.000000 162.000000"
 preserveAspectRatio="xMidYMid meet">

<g transform="translate(0.000000,162.000000) scale(0.100000,-0.100000)"
fill="#000000" stroke="none">
<path d="M1528 1597 c-125 -36 -200 -131 -215 -270 -5 -51 -12 -69 -40 -102
-34 -39 -63 -116 -63 -165 0 -15 7 -50 16 -79 29 -100 132 -171 246 -171 l38
0 0 -360 c0 -386 2 -400 51 -426 35 -18 63 -18 98 0 49 26 51 40 51 426 l0
360 38 0 c117 0 217 71 248 176 26 89 6 172 -59 250 -17 21 -26 47 -30 92 -12
116 -67 201 -160 247 -64 31 -154 40 -219 22z"/>
<path d="M161 996 c-42 -23 -50 -52 -51 -183 0 -135 9 -167 51 -189 37 -19
853 -21 894 -2 45 20 55 55 55 188 0 133 -10 168 -55 188 -39 18 -861 16 -894
-2z"/>
<path d="M61 496 c-72 -40 -63 -149 14 -177 l35 -13 0 -109 c0 -120 11 -155
55 -175 33 -15 57 -15 90 0 44 20 55 55 55 178 l0 110 300 0 300 0 0 -110 c0
-123 11 -158 55 -178 33 -15 57 -15 90 0 44 20 55 55 55 175 l0 109 35 13 c36
13 65 53 65 91 0 33 -26 75 -55 88 -40 18 -1061 16 -1094 -2z"/>
</g>
</svg>
